<?xml version="1.0" encoding="utf-8"?>
<!-- Generator: Adobe Illustrator 28.0.0, SVG Export Plug-In . SVG Version: 6.00 Build 0)  -->
<svg version="1.1" id="Capa_1" xmlns="http://www.w3.org/2000/svg" xmlns:xlink="http://www.w3.org/1999/xlink" x="0px" y="0px"
	 viewBox="0 0 261.5 87.3" style="enable-background:new 0 0 261.5 87.3;" xml:space="preserve">
<style type="text/css">
	.st0{fill:#9E1C2D;}
	.st1{fill:#C12032;}
	.st2{fill:#FFFFFF;}
</style>
<g>
	<g>
		<g>
			<g>
				<path class="st0" d="M14.9,45.9c1.9,1.1,3.4,0.4,3.4-1.5c0,0,0,0,0,0V27.4l0,0c0,0,0,0,0,0c0-0.3,0.1-0.7,0.3-1L1,16.2
					c-0.2,0.3-0.3,0.7-0.3,1v18.4c0,1.2,0.9,2.6,2.1,3.3c0,0,0,0,0,0L14.9,45.9C14.9,45.9,14.9,45.9,14.9,45.9z"/>
				<path class="st1" d="M1.9,15.3c-0.4,0.2-0.7,0.6-0.9,0.9l17.7,10.2c0.2-0.4,0.5-0.7,0.8-0.9l0,0l20.3-12.8L22.1,2.5L1.9,15.3
					C1.9,15.3,1.9,15.3,1.9,15.3z"/>
			</g>
			<g>
				<path class="st0" d="M36.1,30.7c-1.9-1.1-3.4-0.4-3.4,1.5c0,0,0,0,0,0v17.1l0,0c0,0,0,0,0,0c0,0.3-0.1,0.7-0.3,1l17.7,10.2
					c0.2-0.3,0.3-0.7,0.3-1V41c0-1.2-0.9-2.6-2.1-3.3c0,0,0,0,0,0L36.1,30.7C36.1,30.7,36.1,30.7,36.1,30.7z"/>
				<path class="st1" d="M49.2,61.4c0.4-0.2,0.7-0.6,0.9-0.9L32.4,50.2c-0.2,0.4-0.5,0.7-0.8,0.9l0,0L11.2,64l17.7,10.2L49.2,61.4
					C49.1,61.4,49.1,61.4,49.2,61.4z"/>
			</g>
		</g>
		<g>
			<polygon class="st2" points="96.6,46.1 96.6,40.4 104.6,40.4 104.6,35.6 96.6,35.6 96.6,30.8 108.1,30.8 108.1,26 90.4,26 
				90.4,50.9 108.5,50.9 108.5,46.1 			"/>
			<polygon class="st2" points="130.1,26 125.1,41.7 120.2,26 112,26 112,50.9 117.5,50.9 117.5,34.4 122.8,50.9 127.5,50.9 
				132.8,34.4 132.8,50.9 138.3,50.9 138.3,26 			"/>
			<polygon class="st2" points="141.8,26 141.8,30.8 148.9,30.8 148.9,50.9 155.1,50.9 155.1,30.8 162.3,30.8 162.3,26 			"/>
			<path class="st2" d="M181.5,40c1.5-0.5,2.6-1.2,3.4-2.3c0.9-1.2,1.4-2.6,1.3-4.2c0-1-0.2-2-0.5-3c-0.4-0.9-0.9-1.7-1.7-2.4
				c-0.7-0.7-1.7-1.2-2.9-1.6c-1.2-0.4-2.5-0.6-4.1-0.6h-11.4v24.9h6.2v-9.7h3.7l5.1,9.7h6.9L181.5,40z M171.9,30.7h4.3
				c1.3,0,2.3,0.3,3,0.8c0.6,0.5,0.9,1.2,0.9,2.2c0,1-0.3,1.7-0.9,2.2c-0.7,0.5-2,0.8-3.9,0.8h-3.4V30.7z"/>
			<path class="st2" d="M257.4,29c-2-2.2-5-3.4-8.9-3.4c-3.9,0-6.9,1.1-8.9,3.4c-2,2.2-3,5.4-3,9.4c0,4,1,7.2,3,9.4
				c2,2.2,5,3.4,8.9,3.4c3.9,0,6.9-1.1,8.9-3.4c2-2.2,3-5.4,3-9.4C260.4,34.4,259.4,31.2,257.4,29z M242.8,38.5L242.8,38.5
				c0-2.7,0.5-4.8,1.4-6.1c0.9-1.3,2.3-1.9,4.3-1.9c2,0,3.4,0.6,4.3,1.9c0.9,1.3,1.4,3.4,1.4,6.1c0,2.7-0.5,4.8-1.4,6.1
				c-0.9,1.3-2.3,1.9-4.3,1.9c-2,0-3.5-0.6-4.4-1.9C243.2,43.2,242.7,41.2,242.8,38.5z"/>
			<path class="st2" d="M85.8,39.9C85,39,84.1,38.2,83,37.6c-1.1-0.6-2.2-1.1-3.5-1.5c-1.2-0.4-2.3-0.8-3.4-1.2
				c-1-0.4-1.8-0.8-2.5-1.2c-0.6-0.4-0.8-0.8-0.8-1.3c0-0.8,0.3-1.3,0.9-1.6c0.7-0.4,1.5-0.6,2.6-0.6c1.1,0,2.1,0.3,2.8,0.8
				c0.7,0.5,1.3,1.2,1.7,2.1l0.2,0.4h0l0,0h5.9c0,0,0-1.1-0.4-2.1c0,0,0,0,0,0c0,0,0,0,0,0c-0.1-0.2-0.2-0.4-0.3-0.6
				c-0.8-1.5-2.1-2.8-3.7-3.6c-1.8-1-3.8-1.5-6.1-1.5c-1.2,0-2.4,0.2-3.5,0.5c-1.1,0.3-2.1,0.8-2.9,1.4c-0.9,0.6-1.6,1.4-2.1,2.3
				c-0.5,0.9-0.8,1.9-0.8,3.1c0,1.4,0.4,2.5,1.2,3.4c0.7,0.8,1.6,1.6,2.7,2.2c1.1,0.6,2.2,1.1,3.5,1.5c1.2,0.4,2.3,0.8,3.4,1.2
				c1,0.4,1.8,0.9,2.5,1.3c0.6,0.4,0.8,0.9,0.8,1.6c0,0.5-0.1,0.9-0.3,1.2c-0.2,0.3-0.5,0.6-0.8,0.8c-0.4,0.2-0.8,0.4-1.3,0.5
				c-0.5,0.1-1.1,0.2-1.7,0.2c-1.4,0-2.5-0.3-3.4-0.9c-0.8-0.6-1.6-1.5-2.2-2.6l-0.2-0.4l0,0v0h-5.6c0,0,0,1,0.4,2l0,0l0.2,0.5
				c0.4,0.9,1,1.8,1.7,2.5c0.7,0.7,1.6,1.4,2.5,1.9c0.9,0.5,2,0.9,3.1,1.2c1.1,0.3,2.2,0.4,3.4,0.4c3.1,0,5.6-0.6,7.3-1.9
				c1.8-1.3,2.7-3.3,2.7-5.9C86.9,42,86.5,40.8,85.8,39.9z"/>
			<path class="st2" d="M228.2,42.8L228.2,42.8L228.2,42.8L228.2,42.8l-0.2,0.3c-0.4,0.7-0.7,1.2-1.1,1.7c-0.4,0.4-0.7,0.7-1.1,1
				c-0.4,0.2-0.8,0.4-1.2,0.5c-0.5,0.1-1,0.2-1.5,0.2c-1.5,0-2.6-0.4-3.4-1.3c-1.2-1.3-1.9-3.5-1.8-6.7c0-3.2,0.6-5.4,1.8-6.7
				c0.8-0.9,2-1.3,3.4-1.3c0.5,0,1,0.1,1.5,0.2c0.4,0.1,0.8,0.3,1.2,0.5c0.4,0.2,0.7,0.6,1.1,1c0.4,0.4,0.7,1,1.1,1.7l0.2,0.3v0h0
				l0,0l0,0h5.9c0,0,0-1.1-0.4-2.1c0,0,0,0,0,0c-0.8-2-2.2-3.6-3.9-4.7c-1.8-1.1-4-1.6-6.6-1.6c-3.6,0-6.5,1.1-8.5,3.4
				c-2,2.2-3,5.4-3,9.4s1,7.2,3,9.4c2,2.2,4.8,3.4,8.5,3.4c2.6,0,4.8-0.6,6.6-1.6c1.7-1.1,3-2.6,3.9-4.7c0,0,0,0,0,0
				c0.4-1,0.4-2.1,0.4-2.1L228.2,42.8L228.2,42.8z"/>
			<path class="st2" d="M203.3,26h-7.2l-6.9,21l2.2,4h2.6l1.6-5.2h7.9l1.5,5.2h6.2L203.3,26z M197.2,41l2.6-8.4l2.5,8.4H197.2z"/>
		</g>
	</g>
</g>
</svg>
