<svg xmlns="http://www.w3.org/2000/svg" viewBox="0 0 884.28 350.1"><defs><style>.cls-1{fill:#414141;}.cls-2{fill:#f06309;}</style></defs><title>sial_header</title><g id="Capa_2" data-name="Capa 2"><g id="Capa_1-2" data-name="Capa 1"><path class="cls-1" d="M246.19,206c-9,5.4-19.53,7.67-30,7.67h-205V169.35H214s12.33,1,18.71-10.45c3.41-6.1,3.94-13.66.28-19.63-3.18-5.17-9.9-10.26-24.08-9.9H56.35c-13.92,0-27.7-4.28-38.47-13.09C9,109.06,1.18,98.18.27,82.13A150.91,150.91,0,0,1,.74,58C3.07,35.61,16.48,15.43,37.14,6.58c6.41-2.75,11-3.16,19.82-2.95L349.86,0V43.61H57.58a12.88,12.88,0,0,0-8.7,3.09c-2.82,2.54-5.36,7.08-4.27,15.08a27.08,27.08,0,0,0,.29,8.43A15.7,15.7,0,0,0,60.34,82.86H215.77c12.86,0,25.62,3.62,36,11.19,0,0,24.92,20,21.79,53.13S274.92,188.79,246.19,206Z"/><path class="cls-1" d="M294.51,71V173.78s6.65,34.87,46.17,39.9,61.16-30.33,61.16-30.33L503.75,43.16l67.4,103.16s9.56,16.23-9.57,19.55H468.39v48.3h106c15.06,0,29.89-5.22,40.83-15.56a46.93,46.93,0,0,0,15-29.82c3.32-32-12.9-53.67-12.9-53.67L536.62,0H462.37L360.24,155.93s-5,11.27-12.48,0V71.44Z"/><path class="cls-1" d="M702.64,0V136.44s0,27.74,30.42,26.4H884.28v50.84H709.45a69.59,69.59,0,0,1-36-9.59c-13-7.85-26.28-21.79-27.62-46.17V0Z"/><path class="cls-2" d="M9.8,349V269.62H26.41V349Z"/><path class="cls-2" d="M113.23,349,78.66,287.87a133.87,133.87,0,0,1,1,14.31V349H64.91V269.62h19L119,331.24a130.84,130.84,0,0,1-1-15.49V269.62h14.75V349Z"/><path class="cls-2" d="M209,337.09a42.37,42.37,0,0,0,12.56-1.88,25.7,25.7,0,0,0,9.41-4.82v-11H211.54V307.13h34.58V336.3a42.81,42.81,0,0,1-16.41,10.14,61.83,61.83,0,0,1-21.21,3.66q-19.37,0-29.79-10.73t-10.42-30.44q0-19.59,10.48-30t30.13-10.45q27.93,0,35.53,20.67l-15.32,4.62a18.21,18.21,0,0,0-7.77-9.12,24.15,24.15,0,0,0-12.44-3.1q-11.72,0-17.8,7.09T185,308.93q0,13.47,6.28,20.81T209,337.09Z"/><path class="cls-2" d="M284.06,349V269.62h62.4v12.84H300.67V302.4H343v12.84H300.67v20.9h48.1V349Z"/><path class="cls-2" d="M432.38,349,397.8,287.87a133.87,133.87,0,0,1,1,14.31V349H384.06V269.62h19l35.08,61.62a133,133,0,0,1-1-15.49V269.62h14.75V349Z"/><path class="cls-2" d="M490.42,349V269.62H507V349Z"/><path class="cls-2" d="M545.53,349V269.62h62.4v12.84H562.14V302.4H604.5v12.84H562.14v20.9h48.1V349Z"/><path class="cls-2" d="M700,349l-18.41-30.13H662.14V349H645.53V269.62h39.65q14.19,0,21.9,6.12t7.72,17.54a22.72,22.72,0,0,1-4.73,14.39,22.23,22.23,0,0,1-12.79,8L718.74,349Zm-2-55q0-11.43-14.64-11.43H662.14V306h21.74q7,0,10.59-3.15C696.87,300.69,698.07,297.75,698.07,294Z"/><path class="cls-2" d="M750,262.81v-1.75l14.19-14.3h14.53v2.42L759.6,262.81ZM751.89,349V269.62H768.5V349Z"/><path class="cls-2" d="M863.1,349l-7-20.28H825.81l-7,20.28H802.16l29-79.36h19.6L879.54,349Zm-22.19-67.13-.34,1.23q-.57,2-1.35,4.62t-9.69,28.5h22.81l-7.83-22.81-2.42-7.66Z"/></g></g></svg>