<?xml version="1.0" encoding="utf-8"?>
<!-- Generator: Adobe Illustrator 21.0.0, SVG Export Plug-In . SVG Version: 6.00 Build 0)  -->
<svg version="1.1" id="Layer_1" xmlns="http://www.w3.org/2000/svg" xmlns:xlink="http://www.w3.org/1999/xlink" x="0px" y="0px"
	 viewBox="0 0 360 192" style="enable-background:new 0 0 360 192;" xml:space="preserve">
<style type="text/css">
	.st0{fill:#8BDC65;}
</style>
<g>
	<g>
		<g>
			<path class="st0" d="M52.5,135.8v19.3h-11l-0.8-9.3h-2.3l-5.2,0.3v34.5l5.2,0.3v10H13.9v-10l5.2-0.3v-34.5l-5.2-0.3h-2.1
				l-0.8,9.3H0v-19.3H52.5z"/>
			<path class="st0" d="M92.2,135.2c4.7,0.3,9,2.1,10.8,4.3c0.9,1,1.7,2.8,2.4,5.1c0.7,2.3,1.1,4.9,1.3,7.6
				c0.2,2.8,0.2,6.5,0.2,11.1c0,4.7-0.1,8.4-0.2,11.2c-0.3,5.4-1.7,10.6-3.6,12.8c-0.9,1-2.4,2-4.3,2.8c-2,0.8-4.2,1.3-6.5,1.4
				c-2.3,0.2-5.4,0.2-9.4,0.2s-7.2-0.1-9.5-0.2c-4.7-0.3-9.1-2.1-11-4.2c-0.9-1.1-1.7-2.8-2.4-5.2c-0.6-2.4-1-4.9-1.2-7.7
				s-0.2-6.5-0.2-11.1c0-4.7,0.1-8.4,0.2-11.1c0.3-5.4,1.7-10.6,3.5-12.8c0.9-1.1,2.4-2.1,4.4-2.8c2.1-0.8,4.3-1.3,6.5-1.4
				c2.3-0.2,5.4-0.2,9.5-0.2C86.8,135,89.9,135.1,92.2,135.2z M79.6,146c-1.5,0-3.5,0.6-4.2,1s-1.7,2.2-2.1,3.5
				c-0.2,1.3-0.6,4.6-0.6,7.3v5.5v5.6c0,2.6,0.3,6,0.6,7.3c0.3,1.3,1.3,3.1,2.1,3.5c0.7,0.4,2.7,1,4.2,1.1H86
				c1.6-0.1,3.5-0.7,4.2-1.1c0.7-0.4,1.7-2.2,1.9-3.5c0.3-1.3,0.6-4.7,0.6-7.3v-5.6v-5.5c0-2.6-0.3-6.1-0.6-7.3
				c-0.2-1.3-1.2-3.1-1.9-3.5c-0.7-0.4-2.6-1-4.2-1C84.5,146,81.2,146,79.6,146z"/>
			<path class="st0" d="M166.7,181v10H149l-7.6-18.7c-1.2-2.6-2.1-3.2-6.5-3.2h-1.6v11.6l5.2,0.3v10h-24.6v-10l5.2-0.3v-34.5
				l-5.2-0.3v-10h24.6c4,0,7.2,0.1,9.5,0.2c4.7,0.2,9.1,1.3,11,2.5c0.9,0.6,1.7,1.7,2.4,3c1.3,2.8,1.5,5.5,1.5,10.9
				c0,4.7-0.8,8-2.3,9.9s-4.8,3.1-9.9,3.5c2.1,0.7,3.8,2.4,5.1,5l4.6,9.7L166.7,181z M133.2,159h1.7c5.7,0,8.4-0.3,10.6-0.6
				c3.2-1,2.9-2.3,3.2-5.9c0-5.9-0.3-6.5-11.5-6.5l-3.9,0.2V159H133.2z"/>
			<path class="st0" d="M225.7,181v10H208l-7.6-18.7c-1.2-2.6-2.1-3.2-6.5-3.2h-1.6v11.6l5.2,0.3v10h-24.6v-10l5.2-0.3v-34.5
				l-5.2-0.3v-10h24.6c4,0,7.2,0.1,9.5,0.2c4.7,0.2,9.1,1.3,11,2.5c0.9,0.6,1.7,1.7,2.4,3c1.3,2.8,1.5,5.5,1.5,10.9
				c0,4.7-0.8,8-2.3,9.9s-4.8,3.1-9.9,3.5c2.1,0.7,3.8,2.4,5.1,5l4.6,9.7L225.7,181z M192.3,159h1.7c5.7,0,8.4-0.3,10.6-0.6
				c3.2-1,2.9-2.3,3.2-5.9c0-5.9-0.3-6.5-11.5-6.5l-3.9,0.2V159H192.3z"/>
			<path class="st0" d="M276.1,174.1V191h-45v-10l5.2-0.3v-34.5l-5.2-0.3v-10h44.2v17h-10.9l-0.7-6.9h-8l-5.2,0.3v12.6h12.9v10
				h-12.9v11.9l5.2,0.3h8.8l0.7-6.9h10.9V174.1z"/>
			<path class="st0" d="M314.3,135.1c4.2,0.1,8.2,1.2,9.7,2.4c0.8,0.6,1.5,1.6,2.1,3.1c1.2,2.8,1.1,5.4,1.1,11l-13.7,0.9
				c0-3.2-0.4-5.2-1.1-5.8s-2.9-0.9-6.6-0.9c-3.9,0-6.3,0.2-7.1,0.7c-0.8,0.4-1.2,1.8-1.2,4.1c0.5,4.5,0.3,4.7,14.1,7.6
				c2.8,0.6,5,1,6.4,1.3c2.9,0.6,6.5,2,7.6,3.2c0.6,0.6,1.1,1.3,1.7,2.4c1.2,2.2,1.2,4.4,1.2,8.6c0,4.5,0,6.9-0.6,9.8
				c-0.6,2.8-1,3.9-2.8,5.4s-3.3,1.9-6.8,2.3c-3.5,0.6-6.7,0.6-12.5,0.6s-9,0-12.5-0.6c-3.5-0.4-5-0.9-6.9-2.2
				c-1.7-1.3-2.2-2.6-2.8-5.2c-0.6-2.8-0.6-5-0.6-9.5l13.7-0.9v3.2c0.1,1.3,0.6,3,1.2,3.4c0.3,0.2,0.9,0.4,1.7,0.6
				c1.7,0.4,2.8,0.4,6.2,0.4c8.4,0,8.9-0.8,8.9-5.5c-0.2-4.8-0.2-5-10.6-7.4c-3.4-0.6-6.2-1.2-8.3-1.7c-4.1-1-7.6-2.8-9.1-4
				c-0.7-0.6-1.3-1.7-1.9-3c-0.9-2.8-0.9-4.7-0.9-9.7c0-2.4,0.1-4.2,0.2-5.4c0.2-2.6,1.4-5.6,3.1-6.6c0.9-0.6,2.1-1.1,3.9-1.6
				c3.5-0.9,7.6-1.1,14.9-1.1C309.4,135,312.3,135.1,314.3,135.1z"/>
			<path class="st0" d="M354.8,146.1v34.5l5.2,0.3v10h-24.6v-10l5.2-0.3v-34.5l-5.2-0.3v-10H360v10L354.8,146.1z"/>
		</g>
	</g>
	<g>
		<g>
			<path class="st0" d="M246.9,84.6c-3.3-11-7.8-21.6-13.4-31.5l-53.9,27.5L175.5,93l-27.6,14.1c10.6,2.3,21.5,3.5,32.6,3.5
				c20.8,0,40.9-4.1,59.8-12.3C245.7,96.1,248.5,90.2,246.9,84.6z"/>
			<path class="st0" d="M175.3,51.9l42.3-21.6C208.6,19.5,198,9.9,186.3,2c-1.9-1.3-4.2-2-6.4-2s-4.5,0.7-6.4,2
				c-28.9,19.6-50.4,48.8-60.4,82.1c-1,3.2-0.4,6.6,1.2,9.3l56.9-29.1L175.3,51.9z"/>
			<path class="st0" d="M183.7,68.3l45-23c-1.7-2.6-3.4-5.1-5.3-7.6l-52.2,26.7l-4.1,12.4l-44.2,22.6c3.9,1.6,7.8,3,11.8,4.3
				l44.9-22.9L183.7,68.3z"/>
		</g>
	</g>
</g>
</svg>
